{
  "accessors": [
    {
      "bufferView": 2,
      "componentType": 5126,
      "count": 292,
      "max": [
        0.011086463928222656,
        1.2400755882263184,
        0.08745026588439941
      ],
      "min": [
        -1.0723847150802612,
        -0.8705817461013794,
        -0.011086583137512207
      ],
      "type": "VEC3"
    },
    {
      "bufferView": 2,
      "byteOffset": 3504,
      "componentType": 5126,
      "count": 292,
      "max": [
        1.0,
        1.0,
        1.0
      ],
      "min": [
        -1.0,
        -1.0,
        -1.0
      ],
      "type": "VEC3"
    },
    {
      "bufferView": 3,
      "componentType": 5126,
      "count": 292,
      "max": [
        1.0,
        0.1317508965730667,
        1.0,
        1.0
      ],
      "min": [
        -1.0,
        -1.0,
        -1.0,
        1.0
      ],
      "type": "VEC4"
    },
    {
      "bufferView": 1,
      "componentType": 5126,
      "count": 292,
      "max": [
        0.99609375,
        0.98779296875
      ],
      "min": [
        0.000835418701171875,
        0.0021343231201171875
      ],
      "type": "VEC2"
    },
    {
      "bufferView": 1,
      "byteOffset": 2336,
      "componentType": 5126,
      "count": 292,
      "max": [
        0.99609375,
        0.98779296875
      ],
      "min": [
        0.000835418701171875,
        0.0021343231201171875
      ],
      "type": "VEC2"
    },
    {
      "bufferView": 0,
      "componentType": 5125,
      "count": 528,
      "type": "SCALAR"
    },
    {
      "bufferView": 2,
      "byteOffset": 7008,
      "componentType": 5126,
      "count": 292,
      "max": [
        1.0723847150802612,
        1.2400755882263184,
        0.08745026588439941
      ],
      "min": [
        -0.011086463928222656,
        -0.8705817461013794,
        -0.011086583137512207
      ],
      "type": "VEC3"
    },
    {
      "bufferView": 2,
      "byteOffset": 10512,
      "componentType": 5126,
      "count": 292,
      "max": [
        1.0,
        1.0,
        1.0
      ],
      "min": [
        -1.0,
        -1.0,
        -1.0
      ],
      "type": "VEC3"
    },
    {
      "bufferView": 3,
      "byteOffset": 4672,
      "componentType": 5126,
      "count": 292,
      "max": [
        1.0,
        0.13175110518932343,
        1.0,
        1.0
      ],
      "min": [
        -1.0,
        -0.09795038402080536,
        -1.0,
        1.0
      ],
      "type": "VEC4"
    },
    {
      "bufferView": 1,
      "byteOffset": 4672,
      "componentType": 5126,
      "count": 292,
      "max": [
        0.9990234375,
        0.98095703125
      ],
      "min": [
        0.09210205078125,
        0.000835418701171875
      ],
      "type": "VEC2"
    },
    {
      "bufferView": 1,
      "byteOffset": 7008,
      "componentType": 5126,
      "count": 292,
      "max": [
        0.9990234375,
        0.98095703125
      ],
      "min": [
        0.09210205078125,
        0.000835418701171875
      ],
      "type": "VEC2"
    },
    {
      "bufferView": 0,
      "byteOffset": 2112,
      "componentType": 5125,
      "count": 528,
      "type": "SCALAR"
    },
    {
      "bufferView": 4,
      "componentType": 5126,
      "count": 91,
      "max": [
        3.0
      ],
      "min": [
        0.0
      ],
      "type": "SCALAR"
    },
    {
      "bufferView": 5,
      "componentType": 5126,
      "count": 91,
      "max": [
        1.0704928636550903,
        1.0,
        1.0
      ],
      "min": [
        1.0,
        1.0,
        0.934585452079773
      ],
      "type": "VEC3"
    },
    {
      "bufferView": 4,
      "byteOffset": 364,
      "componentType": 5126,
      "count": 91,
      "max": [
        3.0
      ],
      "min": [
        0.0
      ],
      "type": "SCALAR"
    },
    {
      "bufferView": 6,
      "componentType": 5126,
      "count": 91,
      "max": [
        0.0,
        0.0,
        0.0,
        1.0
      ],
      "min": [
        0.0,
        -0.630487322807312,
        0.0,
        0.7761995196342468
      ],
      "type": "VEC4"
    },
    {
      "bufferView": 4,
      "byteOffset": 728,
      "componentType": 5126,
      "count": 61,
      "max": [
        2.0
      ],
      "min": [
        0.0
      ],
      "type": "SCALAR"
    },
    {
      "bufferView": 5,
      "byteOffset": 1092,
      "componentType": 5126,
      "count": 61,
      "max": [
        1.0704928636550903,
        1.0,
        1.0
      ],
      "min": [
        1.0,
        1.0,
        0.934585452079773
      ],
      "type": "VEC3"
    },
    {
      "bufferView": 4,
      "byteOffset": 972,
      "componentType": 5126,
      "count": 61,
      "max": [
        2.0
      ],
      "min": [
        0.0
      ],
      "type": "SCALAR"
    },
    {
      "bufferView": 6,
      "byteOffset": 1456,
      "componentType": 5126,
      "count": 61,
      "max": [
        0.0,
        0.0,
        0.0,
        1.0
      ],
      "min": [
        0.0,
        -0.630487322807312,
        0.0,
        0.7761995196342468
      ],
      "type": "VEC4"
    }
  ],
  "animations": [
    {
      "channels": [
        {
          "sampler": 0,
          "target": {
            "node": 8,
            "path": "scale"
          }
        },
        {
          "sampler": 1,
          "target": {
            "node": 8,
            "path": "rotation"
          }
        }
      ],
      "name": "Gate_Open",
      "samplers": [
        {
          "input": 12,
          "interpolation": "LINEAR",
          "output": 13
        },
        {
          "input": 14,
          "interpolation": "LINEAR",
          "output": 15
        }
      ]
    },
    {
      "channels": [
        {
          "sampler": 0,
          "target": {
            "node": 8,
            "path": "scale"
          }
        },
        {
          "sampler": 1,
          "target": {
            "node": 8,
            "path": "rotation"
          }
        }
      ],
      "name": "Gate_Closed",
      "samplers": [
        {
          "input": 16,
          "interpolation": "LINEAR",
          "output": 17
        },
        {
          "input": 18,
          "interpolation": "LINEAR",
          "output": 19
        }
      ]
    }
  ],
  "asset": {
    "extras": {
      "author": "liltoba (https://sketchfab.com/liltoba)",
      "license": "CC-BY-4.0 (http://creativecommons.org/licenses/by/4.0/)",
      "source": "https://sketchfab.com/3d-models/gate-f618c0b07e744429918e5f635ffb3b45",
      "title": "Gate"
    },
    "generator": "Sketchfab-12.68.0",
    "version": "2.0"
  },
  "bufferViews": [
    {
      "buffer": 0,
      "byteLength": 4224,
      "name": "floatBufferViews",
      "target": 34963
    },
    {
      "buffer": 0,
      "byteLength": 9344,
      "byteOffset": 4224,
      "byteStride": 8,
      "name": "floatBufferViews",
      "target": 34962
    },
    {
      "buffer": 0,
      "byteLength": 14016,
      "byteOffset": 13568,
      "byteStride": 12,
      "name": "floatBufferViews",
      "target": 34962
    },
    {
      "buffer": 0,
      "byteLength": 9344,
      "byteOffset": 27584,
      "byteStride": 16,
      "name": "floatBufferViews",
      "target": 34962
    },
    {
      "buffer": 0,
      "byteLength": 1216,
      "byteOffset": 36928,
      "name": "floatBufferViews"
    },
    {
      "buffer": 0,
      "byteLength": 1824,
      "byteOffset": 38144,
      "byteStride": 12,
      "name": "floatBufferViews"
    },
    {
      "buffer": 0,
      "byteLength": 2432,
      "byteOffset": 39968,
      "byteStride": 16,
      "name": "floatBufferViews"
    }
  ],
  "buffers": [
    {
      "byteLength": 42400,
      "uri": "scene.bin"
    }
  ],
  "images": [
    {
      "uri": "textures/TombEntrance_baseColor.png"
    },
    {
      "uri": "textures/TombEntrance_metallicRoughness.png"
    },
    {
      "uri": "textures/TombEntrance_normal.png"
    }
  ],
  "materials": [
    {
      "doubleSided": true,
      "name": "TombEntrance",
      "normalTexture": {
        "index": 2
      },
      "occlusionTexture": {
        "index": 1
      },
      "pbrMetallicRoughness": {
        "baseColorTexture": {
          "index": 0
        },
        "metallicFactor": 0.0,
        "metallicRoughnessTexture": {
          "index": 1
        },
        "roughnessFactor": 0.9577051494623774
      }
    }
  ],
  "meshes": [
    {
      "name": "Gate1_TombEntrance_0",
      "primitives": [
        {
          "attributes": {
            "NORMAL": 1,
            "POSITION": 0,
            "TANGENT": 2,
            "TEXCOORD_0": 3,
            "TEXCOORD_1": 4
          },
          "indices": 5,
          "material": 0,
          "mode": 4
        }
      ]
    },
    {
      "name": "Gate2_TombEntrance_0",
      "primitives": [
        {
          "attributes": {
            "NORMAL": 7,
            "POSITION": 6,
            "TANGENT": 8,
            "TEXCOORD_0": 9,
            "TEXCOORD_1": 10
          },
          "indices": 11,
          "material": 0,
          "mode": 4
        }
      ]
    }
  ],
  "nodes": [
    {
      "children": [
        1
      ],
      "matrix": [
        1.0,
        0.0,
        0.0,
        0.0,
        0.0,
        2.220446049250313e-16,
        -1.0,
        0.0,
        0.0,
        1.0,
        2.220446049250313e-16,
        0.0,
        0.0,
        0.0,
        0.0,
        1.0
      ],
      "name": "Sketchfab_model"
    },
    {
      "children": [
        2
      ],
      "matrix": [
        0.009999999776482582,
        0.0,
        0.0,
        0.0,
        0.0,
        0.0,
        0.009999999776482582,
        0.0,
        0.0,
        -0.009999999776482582,
        0.0,
        0.0,
        0.0,
        0.0,
        0.0,
        1.0
      ],
      "name": "Gate.fbx"
    },
    {
      "children": [
        3
      ],
      "name": "Object_2"
    },
    {
      "children": [
        4
      ],
      "name": "RootNode"
    },
    {
      "children": [
        5
      ],
      "name": "Entry_01"
    },
    {
      "children": [
        6
      ],
      "name": "Main_Hallway"
    },
    {
      "children": [
        7
      ],
      "name": "Doors"
    },
    {
      "children": [
        8,
        10
      ],
      "name": "Gate",
      "scale": [
        1.2590819597244263,
        0.9948634505271912,
        1.1723999977111816
      ],
      "translation": [
        -24.020000457763672,
        0.0,
        -5.940000057220459
      ]
    },
    {
      "children": [
        9
      ],
      "name": "Gate1",
      "translation": [
        1.0992141962051392,
        0.9167087078094482,
        -0.059706732630729675
      ]
    },
    {
      "mesh": 0,
      "name": "Gate1_TombEntrance_0"
    },
    {
      "children": [
        11
      ],
      "name": "Gate2",
      "translation": [
        -1.065061330795288,
        0.9167087078094482,
        -0.059706732630729675
      ]
    },
    {
      "mesh": 1,
      "name": "Gate2_TombEntrance_0"
    }
  ],
  "samplers": [
    {
      "magFilter": 9729,
      "minFilter": 9987,
      "wrapS": 10497,
      "wrapT": 10497
    }
  ],
  "scene": 0,
  "scenes": [
    {
      "name": "Sketchfab_Scene",
      "nodes": [
        0
      ]
    }
  ],
  "textures": [
    {
      "sampler": 0,
      "source": 0
    },
    {
      "sampler": 0,
      "source": 1
    },
    {
      "sampler": 0,
      "source": 2
    }
  ]
}
